<?xml version="1.0" encoding="UTF-8"?>
<svg id="Logo_Development_3" data-name="Logo Development 3" xmlns="http://www.w3.org/2000/svg" viewBox="0 0 512 512">
  <defs>
    <style>
      .cls-1 {
        fill: gray;
        stroke: #231f20;
        stroke-miterlimit: 10;
      }
    </style>
  </defs>
  <g id="V">
    <polyline class="cls-1" points="194.35 239.86 230.76 239.86 255.69 336.17 290.6 239.86 324.32 239.86 291.6 404.06 214.8 404.06 191.86 239.86"/>
  </g>
  <g id="Graduation_Hat">
    <path class="cls-1" d="m257.89,84.18l101.12,43.21c1.75.27,3.14,1.83,3.44,3.74.39,2.47-1.07,5.28-3.44,5.78-14.36,7.83-28.72,15.66-43.08,23.49-.17.09-.34.19-.51.28-19.17,10.45-38.35,20.9-57.52,31.36-19.43-10.27-38.86-20.55-58.3-30.82-14.57-7.7-29.14-15.4-43.7-23.11-1.98-1.7-2.74-4.95-1.85-7.66.82-2.49,2.87-4.03,5.03-3.74,32.94-14.18,65.88-28.35,98.82-42.53Z"/>
    <path class="cls-1" d="m315.41,161.91v52.06c0,1.4-.16,3.93-1.31,6.51-2.44,5.46-7.2,6.39-7.88,6.51-2.49,2.25-5.64,4.7-9.46,6.85-5.32,3-10.18,4.43-13.92,5.14-7.01,2.26-16.86,4.4-28.63,3.77-13.3-.72-24.03-4.72-31.26-8.22-5.84-2.49-10.53-5.11-13.92-7.19-3.89-2.39-5.8-3.91-7.25-6.76-1.94-3.81-2.04-8-1.94-10.37-.08-16.51-.17-33.01-.25-49.52l57.82,31.02c19.33-9.93,38.67-19.86,58-29.8Z"/>
    <path class="cls-1" d="m262.55,131.22l69.71,16.84,1.99,1.28v14.58c.39.39,1.17,1.28,1.59,2.77.75,2.64-.23,4.98-.4,5.36.53,2.72,1.06,5.44,1.59,8.17v41.6h-7.55v-42.11l1.99-7.91c-.18-.65-.51-2.19-.2-4.08.33-2.02,1.21-3.3,1.59-3.79-.08-4.21-.15-8.42-.23-12.62l-5.14-2.21-65.94-15.31.99-2.55Z"/>
  </g>
  <path class="cls-1" d="m182.55,285.54l-36.38,24.16,34.85,21.39c2.76,2.97,2.95,7.44.61,10.39-2.02,2.56-5.6,3.57-8.87,2.45-13.45-8.56-26.9-17.12-40.36-25.68-.54-1-3.72-7.08-1.22-14.06,1.69-4.74,5.08-7.34,6.42-8.25,11.31-7.13,22.62-14.27,33.94-21.4,4.45-1.63,9.11-.01,11.01,3.36,1.93,3.43.2,7.23,0,7.64Z"/>
  <path class="cls-1" d="m326.88,316.74l38.21-21.15-33.02-24.13c-2.51-3.18-2.34-7.65.23-10.41,2.22-2.39,5.87-3.11,9.03-1.72,12.72,9.62,25.44,19.23,38.16,28.85.46,1.04,3.14,7.36.09,14.12-2.07,4.59-5.66,6.9-7.06,7.71-11.85,6.2-23.7,12.4-35.55,18.6-4.56,1.27-9.08-.72-10.7-4.24-1.64-3.57.39-7.22.62-7.62Z"/>
  <g id="Paint_Brush" data-name="Paint Brush">
    <path class="cls-1" d="m438.74,100.54c-10.03,12.51-21.08,28.1-31.79,47.01-8.79,15.52-15.7,30.35-21.14,43.68,3.12,2.47,6.25,4.95,9.37,7.42,8.4-11.81,17.73-26.71,26.58-44.83,8.81-18.03,15.03-34.93,19.47-49.36.61-.93.61-2.23,0-3.13-.58-.87-1.6-1.2-2.5-.78Z"/>
    <path class="cls-1" d="m386.05,191.14c-1.81,2.97-3.82,6.75-5.64,11.34-1.78,4.51-2.94,8.67-3.7,12.17,1.29,1.31,2.58,2.61,3.87,3.92,2.38-1.84,5.68-4.84,8.78-9.4,2.85-4.2,4.54-8.26,5.55-11.24-2.95-2.26-5.91-4.52-8.86-6.78Z"/>
    <path class="cls-1" d="m376.77,212.14c-1.33.13-5.37.71-8.99,4.5-4.1,4.3-4.84,9.78-4.99,11.21-.73,2.74-2.12,6.79-4.83,10.93-3.48,5.32-7.48,8.24-9.87,9.7,2.43.92,6.95,2.21,12.53,1.27,4.31-.73,7.61-2.51,9.65-3.85,1.73-.82,4.66-2.53,7.32-5.94,1.78-2.28,2.85-4.57,3.5-6.27.99-.96,2.92-3.12,3.99-6.66,1.64-5.44.05-10.18-.38-11.36"/>
  </g>
  <g id="Paint_Brush-2" data-name="Paint Brush">
    <path class="cls-1" d="m85.21,104.61c7.33,16.03,16.55,33.72,27.92,50.99,9.33,14.17,18.34,25.38,26.49,34.23,1.78-4.82,3.56-9.64,5.35-14.46-6.99-13.45-15.88-28.44-26.87-42.78-10.93-14.26-21.31-24.45-30.22-31.78-.55-.98-1.38-1.01-2-.08-.6.89-.87,2.48-.66,3.88Z"/>
    <path class="cls-1" d="m139.58,189.46c1.78,2.92,4.06,6.16,6.87,9.12,2.76,2.91,5.34,4.82,7.52,6.11.92-1.99,1.84-3.97,2.75-5.96-1.02-3.78-2.71-9.01-5.43-13.98-2.49-4.56-4.97-7.32-6.81-8.98-1.64,4.56-3.27,9.12-4.91,13.68Z"/>
    <path class="cls-1" d="m152.37,204.55c0,2.08.1,8.42,2.29,14.18,2.48,6.52,5.92,7.83,6.82,8.11,1.7,1.21,4.19,3.49,6.66,7.84,3.16,5.59,4.77,11.93,5.54,15.69.75-3.78,1.86-10.81,1.63-19.57-.18-6.77-1.1-11.98-1.82-15.2-.41-2.73-1.31-7.36-3.31-11.62-1.34-2.84-2.73-4.58-3.77-5.64-.55-1.57-1.8-4.66-3.99-6.43-3.36-2.71-6.49-.35-7.27.29"/>
  </g>
</svg>