<?xml version="1.0" encoding="UTF-8"?>
<svg id="Logo_Development_4" data-name="Logo Development 4" xmlns="http://www.w3.org/2000/svg" viewBox="0 0 512 512">
  <defs>
    <style>
      .cls-1 {
        fill: gray;
        stroke: #231f20;
        stroke-miterlimit: 10;
      }
    </style>
  </defs>
  <g id="V">
    <polyline class="cls-1" points="186.93 251.74 223.34 251.74 248.27 348.06 283.18 251.74 316.9 251.74 284.18 415.94 207.38 415.94 184.44 251.74"/>
  </g>
  <g id="Graduation_Hat">
    <path class="cls-1" d="m250.47,96.06l101.12,43.21c1.75.27,3.14,1.83,3.44,3.74.39,2.47-1.07,5.28-3.44,5.78-14.36,7.83-28.72,15.66-43.08,23.49-.17.09-.34.19-.51.28-19.17,10.45-38.35,20.9-57.52,31.36-19.43-10.27-38.86-20.55-58.3-30.82-14.57-7.7-29.14-15.4-43.7-23.11-1.98-1.7-2.74-4.95-1.85-7.66.82-2.49,2.87-4.03,5.03-3.74,32.94-14.18,65.88-28.35,98.82-42.53Z"/>
    <path class="cls-1" d="m307.99,173.79v52.06c0,1.4-.16,3.93-1.31,6.51-2.44,5.46-7.2,6.39-7.88,6.51-2.49,2.25-5.64,4.7-9.46,6.85-5.32,3-10.18,4.43-13.92,5.14-7.01,2.26-16.86,4.4-28.63,3.77-13.3-.72-24.03-4.72-31.26-8.22-5.84-2.49-10.53-5.11-13.92-7.19-3.89-2.39-5.8-3.91-7.25-6.76-1.94-3.81-2.04-8-1.94-10.37-.08-16.51-.17-33.01-.25-49.52l57.82,31.02c19.33-9.93,38.67-19.86,58-29.8Z"/>
    <path class="cls-1" d="m255.13,143.1l69.71,16.84,1.99,1.28v14.58c.39.39,1.17,1.28,1.59,2.77.75,2.64-.23,4.98-.4,5.36.53,2.72,1.06,5.44,1.59,8.17v41.6h-7.55v-42.11l1.99-7.91c-.18-.65-.51-2.19-.2-4.08.33-2.02,1.21-3.3,1.59-3.79-.08-4.21-.15-8.42-.23-12.62l-5.14-2.21-65.94-15.31.99-2.55Z"/>
  </g>
</svg>